<svg aria-hidden="true" style="position: absolute; width: 0; height: 0; overflow: hidden;" version="1.1"
  xmlns="http://www.w3.org/2000/svg" xmlns:xlink="http://www.w3.org/1999/xlink">
  <defs>
    <symbol id="cart" viewBox="0 0 32 32">
      <path fill="#fff" style="fill: var(--color1, #fff)" d="M-3.2-4.379h49.179v42.105h-49.179z"></path>
    </symbol>

    <symbol id="logo" viewBox="0 0 32 32">
      <path fill="none" stroke="#ff7400" style="stroke: var(--color3, #ff7400)" stroke-linejoin="miter"
        stroke-linecap="butt" stroke-miterlimit="4" stroke-width="2.1333"
        d="M1.498 16l9.376-9.503 9.375 9.503-9.376 9.503z"></path>
      <path fill="none" stroke="#ff7400" style="stroke: var(--color3, #ff7400)" stroke-linejoin="miter"
        stroke-linecap="butt" stroke-miterlimit="4" stroke-width="2.1333"
        d="M11.75 16l9.376-9.503 9.375 9.503-9.376 9.503z"></path>
    </symbol>
    <symbol id="open-menu" viewBox="0 0 32 32">
      <path
        d="M1.677 6.71h28.516c0.926 0 1.677 0.751 1.677 1.677s-0.751 1.677-1.677 1.677h-28.516c-0.926 0-1.677-0.751-1.677-1.677s0.751-1.677 1.677-1.677z">
      </path>
      <path
        d="M1.677 14.194h28.516c0.926 0 1.677 0.751 1.677 1.677s-0.751 1.677-1.677 1.677h-28.516c-0.926 0-1.677-0.751-1.677-1.677s0.751-1.677 1.677-1.677z">
      </path>
      <path
        d="M1.677 21.677h28.516c0.926 0 1.677 0.751 1.677 1.677s-0.751 1.677-1.677 1.677h-28.516c-0.926 0-1.677-0.751-1.677-1.677s0.751-1.677 1.677-1.677z">
      </path>
    </symbol>
    <symbol id="smartphone" viewBox="0 0 20 32">
      <path
        d="M17 0h-14c-1.654 0-3 1.346-3 3v26c0 1.654 1.346 3 3 3h14c1.654 0 3-1.346 3-3v-26c0-1.654-1.346-3-3-3zM3 2h14c0.552 0 1 0.448 1 1v21h-16v-21c0-0.552 0.448-1 1-1zM17 30h-14c-0.552 0-1-0.448-1-1v-3h16v3c0 0.552-0.448 1-1 1z">
      </path>
      <path
        d="M4.707 27.478c0.391 0.365 0.391 0.956 0 1.321s-1.024 0.365-1.414 0c-0.391-0.365-0.391-0.956 0-1.321s1.024-0.365 1.414 0z">
      </path>
    </symbol>
    <symbol id="close-menu" viewBox="0 0 32 32">
      <path
        d="M23.733 10.304l-1.504-1.504-5.963 5.963-5.963-5.963-1.504 1.504 5.963 5.963-5.963 5.963 1.504 1.504 5.963-5.963 5.963 5.963 1.504-1.504-5.963-5.963 5.963-5.963z">
      </path>
    </symbol>
  </defs>
</svg>